<mxfile host="app.diagrams.net" agent="Mozilla/5.0 (Windows NT 10.0; Win64; x64) AppleWebKit/537.36 (KHTML, like Gecko) Chrome/136.0.0.0 Safari/537.36" version="27.0.9">
  <diagram name="Page-1" id="MXZpuOST-uA8ApfJLsdh">
    <mxGraphModel dx="1426" dy="777" grid="1" gridSize="10" guides="1" tooltips="1" connect="1" arrows="1" fold="1" page="1" pageScale="1" pageWidth="827" pageHeight="1169" math="0" shadow="0">
      <root>
        <mxCell id="0" />
        <mxCell id="1" parent="0" />
        <mxCell id="gjRqSRiUc-WmFkG-XfvE-6" style="edgeStyle=orthogonalEdgeStyle;rounded=0;orthogonalLoop=1;jettySize=auto;html=1;exitX=0.5;exitY=1;exitDx=0;exitDy=0;dashed=1;endArrow=none;startFill=0;" edge="1" parent="1" source="gjRqSRiUc-WmFkG-XfvE-25">
          <mxGeometry relative="1" as="geometry">
            <mxPoint x="120" y="720" as="targetPoint" />
          </mxGeometry>
        </mxCell>
        <mxCell id="gjRqSRiUc-WmFkG-XfvE-1" value="Pacman" style="rounded=1;whiteSpace=wrap;html=1;" vertex="1" parent="1">
          <mxGeometry x="60" y="140" width="120" height="60" as="geometry" />
        </mxCell>
        <mxCell id="gjRqSRiUc-WmFkG-XfvE-7" style="edgeStyle=orthogonalEdgeStyle;rounded=0;orthogonalLoop=1;jettySize=auto;html=1;exitX=0.5;exitY=1;exitDx=0;exitDy=0;dashed=1;endArrow=none;startFill=0;" edge="1" parent="1" source="gjRqSRiUc-WmFkG-XfvE-27">
          <mxGeometry relative="1" as="geometry">
            <mxPoint x="300" y="720" as="targetPoint" />
            <Array as="points">
              <mxPoint x="300" y="460" />
              <mxPoint x="300" y="460" />
            </Array>
          </mxGeometry>
        </mxCell>
        <mxCell id="gjRqSRiUc-WmFkG-XfvE-3" value="Ghost" style="rounded=1;whiteSpace=wrap;html=1;" vertex="1" parent="1">
          <mxGeometry x="240" y="140" width="120" height="60" as="geometry" />
        </mxCell>
        <mxCell id="gjRqSRiUc-WmFkG-XfvE-8" style="edgeStyle=orthogonalEdgeStyle;rounded=0;orthogonalLoop=1;jettySize=auto;html=1;exitX=0.5;exitY=1;exitDx=0;exitDy=0;dashed=1;endArrow=none;startFill=0;" edge="1" parent="1" source="gjRqSRiUc-WmFkG-XfvE-31">
          <mxGeometry relative="1" as="geometry">
            <mxPoint x="460" y="720" as="targetPoint" />
          </mxGeometry>
        </mxCell>
        <mxCell id="gjRqSRiUc-WmFkG-XfvE-4" value="Game Manager" style="rounded=1;whiteSpace=wrap;html=1;" vertex="1" parent="1">
          <mxGeometry x="400" y="140" width="120" height="60" as="geometry" />
        </mxCell>
        <mxCell id="gjRqSRiUc-WmFkG-XfvE-9" style="edgeStyle=orthogonalEdgeStyle;rounded=0;orthogonalLoop=1;jettySize=auto;html=1;exitX=0.5;exitY=1;exitDx=0;exitDy=0;dashed=1;endArrow=none;startFill=0;" edge="1" parent="1" source="gjRqSRiUc-WmFkG-XfvE-33">
          <mxGeometry relative="1" as="geometry">
            <mxPoint x="620" y="720" as="targetPoint" />
          </mxGeometry>
        </mxCell>
        <mxCell id="gjRqSRiUc-WmFkG-XfvE-5" value="Score Manager" style="rounded=1;whiteSpace=wrap;html=1;" vertex="1" parent="1">
          <mxGeometry x="560" y="140" width="120" height="60" as="geometry" />
        </mxCell>
        <mxCell id="gjRqSRiUc-WmFkG-XfvE-10" value="1.1.1&lt;div&gt;Collision(isPowered)&lt;/div&gt;" style="text;html=1;align=center;verticalAlign=middle;resizable=0;points=[];autosize=1;strokeColor=none;fillColor=none;" vertex="1" parent="1">
          <mxGeometry x="140" y="250" width="130" height="40" as="geometry" />
        </mxCell>
        <mxCell id="gjRqSRiUc-WmFkG-XfvE-11" value="2. KillPlayer()" style="text;html=1;align=center;verticalAlign=middle;resizable=0;points=[];autosize=1;strokeColor=none;fillColor=none;" vertex="1" parent="1">
          <mxGeometry x="160" y="319" width="90" height="30" as="geometry" />
        </mxCell>
        <mxCell id="gjRqSRiUc-WmFkG-XfvE-12" value="3. ReturnGhost()" style="text;html=1;align=center;verticalAlign=middle;resizable=0;points=[];autosize=1;strokeColor=none;fillColor=none;" vertex="1" parent="1">
          <mxGeometry x="330" y="330" width="110" height="30" as="geometry" />
        </mxCell>
        <mxCell id="gjRqSRiUc-WmFkG-XfvE-13" value="3.1 AddScore()" style="text;html=1;align=center;verticalAlign=middle;resizable=0;points=[];autosize=1;strokeColor=none;fillColor=none;" vertex="1" parent="1">
          <mxGeometry x="490" y="500" width="100" height="30" as="geometry" />
        </mxCell>
        <mxCell id="gjRqSRiUc-WmFkG-XfvE-15" style="edgeStyle=orthogonalEdgeStyle;rounded=0;orthogonalLoop=1;jettySize=auto;html=1;exitX=0.5;exitY=1;exitDx=0;exitDy=0;dashed=1;endArrow=none;startFill=0;" edge="1" parent="1" source="gjRqSRiUc-WmFkG-XfvE-35">
          <mxGeometry relative="1" as="geometry">
            <mxPoint x="800" y="720" as="targetPoint" />
          </mxGeometry>
        </mxCell>
        <mxCell id="gjRqSRiUc-WmFkG-XfvE-14" value="UI" style="rounded=1;whiteSpace=wrap;html=1;" vertex="1" parent="1">
          <mxGeometry x="740" y="140" width="120" height="60" as="geometry" />
        </mxCell>
        <mxCell id="gjRqSRiUc-WmFkG-XfvE-16" value="3.2 UpdateUI()" style="text;html=1;align=center;verticalAlign=middle;resizable=0;points=[];autosize=1;strokeColor=none;fillColor=none;" vertex="1" parent="1">
          <mxGeometry x="660" y="590" width="100" height="30" as="geometry" />
        </mxCell>
        <mxCell id="gjRqSRiUc-WmFkG-XfvE-18" value="" style="endArrow=classic;html=1;rounded=0;strokeWidth=2;" edge="1" parent="1">
          <mxGeometry width="50" height="50" relative="1" as="geometry">
            <mxPoint x="120" y="300" as="sourcePoint" />
            <mxPoint x="300" y="300" as="targetPoint" />
          </mxGeometry>
        </mxCell>
        <mxCell id="gjRqSRiUc-WmFkG-XfvE-19" value="" style="endArrow=classic;html=1;rounded=0;strokeWidth=2;" edge="1" parent="1">
          <mxGeometry width="50" height="50" relative="1" as="geometry">
            <mxPoint x="300" y="370" as="sourcePoint" />
            <mxPoint x="460" y="370" as="targetPoint" />
          </mxGeometry>
        </mxCell>
        <mxCell id="gjRqSRiUc-WmFkG-XfvE-20" value="" style="endArrow=classic;html=1;rounded=0;strokeWidth=2;" edge="1" parent="1">
          <mxGeometry width="50" height="50" relative="1" as="geometry">
            <mxPoint x="460" y="540" as="sourcePoint" />
            <mxPoint x="620" y="540" as="targetPoint" />
          </mxGeometry>
        </mxCell>
        <mxCell id="gjRqSRiUc-WmFkG-XfvE-21" value="" style="endArrow=classic;html=1;rounded=0;strokeWidth=2;" edge="1" parent="1">
          <mxGeometry width="50" height="50" relative="1" as="geometry">
            <mxPoint x="620" y="630" as="sourcePoint" />
            <mxPoint x="800" y="630" as="targetPoint" />
          </mxGeometry>
        </mxCell>
        <mxCell id="gjRqSRiUc-WmFkG-XfvE-22" value="" style="endArrow=classic;html=1;rounded=0;strokeWidth=2;" edge="1" parent="1">
          <mxGeometry width="50" height="50" relative="1" as="geometry">
            <mxPoint x="300" y="369" as="sourcePoint" />
            <mxPoint x="120" y="369" as="targetPoint" />
          </mxGeometry>
        </mxCell>
        <mxCell id="gjRqSRiUc-WmFkG-XfvE-23" value="" style="endArrow=classic;html=1;rounded=0;strokeWidth=2;" edge="1" parent="1">
          <mxGeometry width="50" height="50" relative="1" as="geometry">
            <mxPoint x="120" y="470" as="sourcePoint" />
            <mxPoint x="460" y="470" as="targetPoint" />
          </mxGeometry>
        </mxCell>
        <mxCell id="gjRqSRiUc-WmFkG-XfvE-24" value="2.1 RemoveLife()" style="text;html=1;align=center;verticalAlign=middle;resizable=0;points=[];autosize=1;strokeColor=none;fillColor=none;" vertex="1" parent="1">
          <mxGeometry x="320" y="430" width="120" height="30" as="geometry" />
        </mxCell>
        <mxCell id="gjRqSRiUc-WmFkG-XfvE-26" value="" style="edgeStyle=orthogonalEdgeStyle;rounded=0;orthogonalLoop=1;jettySize=auto;html=1;exitX=0.5;exitY=1;exitDx=0;exitDy=0;dashed=1;endArrow=none;startFill=0;" edge="1" parent="1" source="gjRqSRiUc-WmFkG-XfvE-1" target="gjRqSRiUc-WmFkG-XfvE-25">
          <mxGeometry relative="1" as="geometry">
            <mxPoint x="120" y="720" as="targetPoint" />
            <mxPoint x="120" y="200" as="sourcePoint" />
          </mxGeometry>
        </mxCell>
        <mxCell id="gjRqSRiUc-WmFkG-XfvE-25" value="" style="rounded=0;whiteSpace=wrap;html=1;fillColor=#dae8fc;strokeColor=#6c8ebf;" vertex="1" parent="1">
          <mxGeometry x="115" y="210" width="10" height="270" as="geometry" />
        </mxCell>
        <mxCell id="gjRqSRiUc-WmFkG-XfvE-28" value="" style="edgeStyle=orthogonalEdgeStyle;rounded=0;orthogonalLoop=1;jettySize=auto;html=1;exitX=0.5;exitY=1;exitDx=0;exitDy=0;dashed=1;endArrow=none;startFill=0;" edge="1" parent="1" source="gjRqSRiUc-WmFkG-XfvE-3" target="gjRqSRiUc-WmFkG-XfvE-27">
          <mxGeometry relative="1" as="geometry">
            <mxPoint x="300" y="720" as="targetPoint" />
            <mxPoint x="300" y="200" as="sourcePoint" />
            <Array as="points" />
          </mxGeometry>
        </mxCell>
        <mxCell id="gjRqSRiUc-WmFkG-XfvE-27" value="" style="rounded=0;whiteSpace=wrap;html=1;fillColor=#dae8fc;strokeColor=#6c8ebf;" vertex="1" parent="1">
          <mxGeometry x="295" y="300" width="10" height="80" as="geometry" />
        </mxCell>
        <mxCell id="gjRqSRiUc-WmFkG-XfvE-32" value="" style="edgeStyle=orthogonalEdgeStyle;rounded=0;orthogonalLoop=1;jettySize=auto;html=1;exitX=0.5;exitY=1;exitDx=0;exitDy=0;dashed=1;endArrow=none;startFill=0;" edge="1" parent="1" source="gjRqSRiUc-WmFkG-XfvE-4" target="gjRqSRiUc-WmFkG-XfvE-31">
          <mxGeometry relative="1" as="geometry">
            <mxPoint x="460" y="720" as="targetPoint" />
            <mxPoint x="460" y="200" as="sourcePoint" />
          </mxGeometry>
        </mxCell>
        <mxCell id="gjRqSRiUc-WmFkG-XfvE-31" value="" style="rounded=0;whiteSpace=wrap;html=1;fillColor=#dae8fc;strokeColor=#6c8ebf;" vertex="1" parent="1">
          <mxGeometry x="455" y="210" width="10" height="520" as="geometry" />
        </mxCell>
        <mxCell id="gjRqSRiUc-WmFkG-XfvE-34" value="" style="edgeStyle=orthogonalEdgeStyle;rounded=0;orthogonalLoop=1;jettySize=auto;html=1;exitX=0.5;exitY=1;exitDx=0;exitDy=0;dashed=1;endArrow=none;startFill=0;" edge="1" parent="1" source="gjRqSRiUc-WmFkG-XfvE-5" target="gjRqSRiUc-WmFkG-XfvE-33">
          <mxGeometry relative="1" as="geometry">
            <mxPoint x="620" y="720" as="targetPoint" />
            <mxPoint x="620" y="200" as="sourcePoint" />
          </mxGeometry>
        </mxCell>
        <mxCell id="gjRqSRiUc-WmFkG-XfvE-33" value="" style="rounded=0;whiteSpace=wrap;html=1;fillColor=#dae8fc;strokeColor=#6c8ebf;" vertex="1" parent="1">
          <mxGeometry x="615" y="210" width="10" height="520" as="geometry" />
        </mxCell>
        <mxCell id="gjRqSRiUc-WmFkG-XfvE-36" value="" style="edgeStyle=orthogonalEdgeStyle;rounded=0;orthogonalLoop=1;jettySize=auto;html=1;exitX=0.5;exitY=1;exitDx=0;exitDy=0;dashed=1;endArrow=none;startFill=0;" edge="1" parent="1" source="gjRqSRiUc-WmFkG-XfvE-14" target="gjRqSRiUc-WmFkG-XfvE-35">
          <mxGeometry relative="1" as="geometry">
            <mxPoint x="800" y="720" as="targetPoint" />
            <mxPoint x="800" y="200" as="sourcePoint" />
          </mxGeometry>
        </mxCell>
        <mxCell id="gjRqSRiUc-WmFkG-XfvE-35" value="" style="rounded=0;whiteSpace=wrap;html=1;fillColor=#dae8fc;strokeColor=#6c8ebf;" vertex="1" parent="1">
          <mxGeometry x="795" y="210" width="10" height="520" as="geometry" />
        </mxCell>
      </root>
    </mxGraphModel>
  </diagram>
</mxfile>
